# File created by Blade
# Date/Time:  Thu Sep 25 19:26:26 2014
# Frame Rate: 120.000 fps
#------------------------------------------------------
:FULLY-SPECIFIED
:DEGREES
364
root -3.381384 31.696752 -12.056927 108.146810 -27.160134 -6.966833
Spine 41.315836 7.432379 19.145638
Head 7.826108 -15.982319 12.864214
LeftShoulder 2.803599 -18.297943 49.106093
LeftArm 54.113018 -43.047887 -27.132366
LeftForeArm 45.334856 -0.000000 47.380319
LeftHand -34.174262 -0.000000 50.360445
LeftHandThumb1 -26.253704 0.000000 33.147579
RightShoulder 3.831600 66.494001 -43.714094
RightArm 15.713961 10.068830 44.819662
RightForeArm -34.455692 -0.000000 44.509583
RightHand -9.232148 -0.000000 -50.438768
RightHandThumb1 -24.326973 -0.000000 -32.862282
LeftUpLeg -105.512313 20.489140 -27.994538
LeftLeg 0.024783 -0.000000 -0.000000
LeftFoot -9.213002 19.626778 -37.362771
LeftToeBase 11.221944 -0.000000 -0.000000
RightUpLeg -117.301423 0.251305 5.326875
RightLeg 0.180841 -0.000000 -0.000000
RightFoot 7.764627 7.824035 5.288053
RightToeBase 0.165144 -0.000000 -0.000000
365
root -3.386116 31.696137 -12.052138 108.176106 -27.101231 -7.005767
Spine 41.320178 7.452189 19.123839
Head 7.810371 -15.963423 12.820800
LeftShoulder 2.786447 -18.347495 49.108039
LeftArm 54.149019 -42.993115 -27.142524
LeftForeArm 45.484453 -0.000000 47.329821
LeftHand -34.193156 0.000000 50.398000
LeftHandThumb1 -26.253704 0.000000 33.147579
RightShoulder 3.805822 66.537891 -43.762716
RightArm 15.644083 10.085257 44.854492
RightForeArm -34.265337 -0.000000 44.483656
RightHand -8.907154 0.000000 -50.309285
RightHandThumb1 -24.326973 -0.000000 -32.862282
LeftUpLeg -105.540852 20.528499 -27.984496
LeftLeg 0.002745 -0.000000 -0.000000
LeftFoot -9.227185 19.617554 -37.455325
LeftToeBase 11.246526 -0.000000 -0.000000
RightUpLeg -117.302634 0.287163 5.346369
RightLeg 0.208970 -0.000000 -0.000000
RightFoot 7.736559 7.826972 5.331832
RightToeBase 0.148162 -0.000000 -0.000000
366
root -3.391799 31.696352 -12.045599 108.202984 -27.048175 -7.048341
Spine 41.349957 7.501741 19.118169
Head 7.733899 -15.967865 12.827418
LeftShoulder 2.783530 -18.369564 49.122564
LeftArm 54.181458 -42.989491 -27.147774
LeftForeArm 45.744989 -0.000000 47.273020
LeftHand -34.217953 -0.000000 50.401121
LeftHandThumb1 -26.253704 0.000000 33.147579
RightShoulder 3.748843 66.569798 -43.809786
RightArm 15.649693 10.010896 44.857773
RightForeArm -34.414293 -0.000000 44.375294
RightHand -9.175119 0.000000 -50.593786
RightHandThumb1 -24.326973 -0.000000 -32.862282
LeftUpLeg -105.559945 20.577392 -27.981024
LeftLeg -0.029031 -0.000000 0.000000
LeftFoot -9.194030 19.605286 -37.479590
LeftToeBase 11.249008 -0.000000 -0.000000
RightUpLeg -117.296253 0.327818 5.360862
RightLeg 0.233117 -0.000000 -0.000000
RightFoot 7.699098 7.819856 5.319618
RightToeBase 0.167126 -0.000000 -0.000000
367
root -3.396370 31.696807 -12.038595 108.231110 -26.995057 -7.076875
Spine 41.358476 7.502706 19.100003
Head 7.712578 -15.935710 12.755376
LeftShoulder 2.770604 -18.320321 49.107483
LeftArm 54.203888 -43.012486 -27.093392
LeftForeArm 45.945769 -0.000000 47.176559
LeftHand -34.157149 0.000000 50.484109
LeftHandThumb1 -26.253704 0.000000 33.147579
RightShoulder 3.720054 66.551818 -43.876279
RightArm 15.651385 10.014937 44.868862
RightForeArm -34.386239 -0.000000 44.312773
RightHand -9.081608 -0.000000 -50.606639
RightHandThumb1 -24.326973 -0.000000 -32.862282
LeftUpLeg -105.587730 20.605598 -27.979423
LeftLeg -0.044304 -0.000000 0.000000
LeftFoot -9.203067 19.596035 -37.544658
LeftToeBase 11.269593 -0.000000 -0.000000
RightUpLeg -117.295934 0.344652 5.363377
RightLeg 0.250414 -0.000000 -0.000000
RightFoot 7.675700 7.789569 5.363744
RightToeBase 0.175997 -0.000000 -0.000000
368
root -3.401257 31.698150 -12.030840 108.278439 -26.932785 -7.124073
Spine 41.362344 7.499657 19.054620
Head 7.694156 -15.861668 12.746873
LeftShoulder 2.733339 -18.231620 49.120786
LeftArm 54.234360 -43.059583 -27.074147
LeftForeArm 46.117131 -0.000000 47.110868
LeftHand -34.163494 -0.000000 50.605165
LeftHandThumb1 -26.253704 0.000000 33.147579
RightShoulder 3.684108 66.589830 -43.937977
RightArm 15.648899 9.860075 44.840320
RightForeArm -34.292014 -0.000000 44.184470
RightHand -9.186254 -0.000000 -50.945909
RightHandThumb1 -24.326973 -0.000000 -32.862282
LeftUpLeg -105.636147 20.648556 -27.981878
LeftLeg -0.059095 -0.000000 0.000000
LeftFoot -9.178486 19.571112 -37.585785
LeftToeBase 11.245379 -0.000000 -0.000000
RightUpLeg -117.308655 0.362559 5.342557
RightLeg 0.278675 -0.000000 -0.000000
RightFoot 7.675471 7.772330 5.422686
RightToeBase 0.080433 -0.000000 -0.000000
369
root -3.405679 31.698377 -12.023859 108.315528 -26.875369 -7.155043
Spine 41.370476 7.500909 19.008082
Head 7.660082 -15.809334 12.809690
LeftShoulder 2.673537 -18.110545 49.160281
LeftArm 54.326197 -43.140865 -27.126650
LeftForeArm 46.233657 -0.000000 47.071126
LeftHand -34.104791 -0.000000 50.687799
LeftHandThumb1 -26.253704 0.000000 33.147579
RightShoulder 3.765072 66.637164 -43.864599
RightArm 15.603747 9.934739 44.869895
RightForeArm -34.325895 -0.000000 44.194710
RightHand -9.067686 -0.000000 -50.840685
RightHandThumb1 -24.326973 -0.000000 -32.862282
LeftUpLeg -105.673000 20.676957 -27.974369
LeftLeg -0.071855 -0.000000 0.000000
LeftFoot -9.197799 19.551027 -37.666704
LeftToeBase 11.333572 -0.000000 -0.000000
RightUpLeg -117.313865 0.395398 5.354349
RightLeg 0.296182 -0.000000 -0.000000
RightFoot 7.639766 7.739200 5.388357
RightToeBase 0.112451 -0.000000 -0.000000
